<svg xmlns="http://www.w3.org/2000/svg" viewBox="0 0 48 48" fill="#d9d9d9"><title>18-Brain process</title><g id="_18-Brain_process" data-name="18-Brain process"><path d="M9,10H6V8H8V3.414L1.707,9.707.293,8.293l8-8A1,1,0,0,1,10,1V9A1,1,0,0,1,9,10Z"/><path d="M33,48H3a3,3,0,0,1-3-3V9a1,1,0,0,1,.293-.707l8-8A1,1,0,0,1,9,0H33a3,3,0,0,1,3,3v8H34V3a1,1,0,0,0-1-1H9.414L2,9.414V45a1,1,0,0,0,1,1H33a1,1,0,0,0,1-1V37h2v8A3,3,0,0,1,33,48Z"/><path d="M35,35a6,6,0,0,1-5.191-3H27a5,5,0,0,1-1-9.9c0-.033,0-.067,0-.1a5.009,5.009,0,0,1,4.084-4.916,5,5,0,0,1,9.832,0A5.009,5.009,0,0,1,44,22c0,.033,0,.067,0,.1A5,5,0,0,1,43,32H40.191A6,6,0,0,1,35,35ZM26.938,24A3,3,0,0,0,27,30h3.422a1,1,0,0,1,.916.6,3.993,3.993,0,0,0,7.324,0,1,1,0,0,1,.916-.6H43a3,3,0,0,0,.036-6c-.075.008-.147.014-.182.015a1,1,0,0,1-.967-1.256A2.962,2.962,0,0,0,42,22a3,3,0,0,0-3-3,1,1,0,0,1-1-1,3,3,0,0,0-6,0,1,1,0,0,1-1,1,3,3,0,0,0-3,3,2.962,2.962,0,0,0,.113.759,1,1,0,0,1-1.006,1.255C27.073,24.013,26.972,24,26.938,24Z"/><path d="M27,32V30a3,3,0,0,0,3-3h2A5.006,5.006,0,0,1,27,32Z"/><path d="M36,22H34a5.006,5.006,0,0,1,5-5v2A3,3,0,0,0,36,22Z"/><path d="M43,32a5.006,5.006,0,0,1-5-5h2a3,3,0,0,0,3,3Z"/><rect x="38" y="23" width="2" height="2"/><rect x="36" y="25" width="2" height="2"/><rect x="40" y="25" width="2" height="2"/><path d="M17,14a3,3,0,1,1,3-3A3,3,0,0,1,17,14Zm0-4a1,1,0,1,0,1,1A1,1,0,0,0,17,10Z"/><path d="M11,27a3,3,0,1,1,3-3A3,3,0,0,1,11,27Zm0-4a1,1,0,1,0,1,1A1,1,0,0,0,11,23Z"/><path d="M17,42a3,3,0,1,1,3-3A3,3,0,0,1,17,42Zm0-4a1,1,0,1,0,1,1A1,1,0,0,0,17,38Z"/><path d="M31,17H22a1,1,0,0,1-.707-.293l-4-4,1.414-1.414L22.414,15H31Z"/><path d="M24,40H19V38h5a3,3,0,0,0,3-3V31h2v4A5.006,5.006,0,0,1,24,40Z"/><rect x="13" y="23" width="11" height="2"/><rect x="4" y="42" width="2" height="2"/><rect x="4" y="38" width="2" height="2"/><rect x="8" y="42" width="2" height="2"/><rect x="30" y="4" width="2" height="2"/><rect x="26" y="4" width="2" height="2"/><rect x="30" y="8" width="2" height="2"/></g></svg>