<svg xmlns="http://www.w3.org/2000/svg" viewBox="0 0 48 48"><title>25-development</title><g id="_25-development" data-name="25-development" fill="#0d0d0d"><path d="M24,48a7,7,0,0,1-6.322-4.008A7.008,7.008,0,0,1,11,37v-.071a7.015,7.015,0,0,1-5.964-6.214,6.995,6.995,0,0,1,0-13.43A7.015,7.015,0,0,1,11,11.071V11a7.008,7.008,0,0,1,6.678-6.992A7,7,0,0,1,24,0a6.006,6.006,0,0,1,6,6H28a4,4,0,0,0-4-4,5,5,0,0,0-4.714,3.349.992.992,0,0,1-1,.667l-.1-.007c-.06,0-.12-.009-.182-.009a5.006,5.006,0,0,0-5,5,4.923,4.923,0,0,0,.077.837,1,1,0,0,1-.232.825.946.946,0,0,1-.786.342h-.008A5.012,5.012,0,0,0,7,18a1.094,1.094,0,0,1-.831,1.075,4.994,4.994,0,0,0,0,9.85,1,1,0,0,1,.835,1c0,.015,0,.087,0,.1A5,5,0,0,0,12,35a1.093,1.093,0,0,1,.81.353,1.024,1.024,0,0,1,.267.81A4.923,4.923,0,0,0,13,37a5.006,5.006,0,0,0,5,5c.062,0,.122-.005.182-.009l.1-.007a1.007,1.007,0,0,1,1,.667A5,5,0,0,0,24,46a4,4,0,0,0,4-4,1,1,0,0,1,1-1h3a1,1,0,0,0,1-1h2a3,3,0,0,1-3,3H29.917A6.01,6.01,0,0,1,24,48Z"/><path d="M12,25a7.008,7.008,0,0,1-7-7H7a5.006,5.006,0,0,0,5,5Z"/><path d="M18,44a7.008,7.008,0,0,1-7-7h2a5,5,0,0,0,10,0h2A7.008,7.008,0,0,1,18,44Z"/><path d="M25,11H23a5,5,0,0,0-10,0H11a7,7,0,0,1,14,0Z"/><rect x="18" y="35" width="2" height="2"/><rect x="16" y="37" width="2" height="2"/><rect x="13" y="16" width="2" height="2"/><rect x="11" y="18" width="2" height="2"/><path d="M33.716,8.335A5.007,5.007,0,0,0,29,5V3a7.011,7.011,0,0,1,6.6,4.669Z"/><path d="M34,29a5,5,0,1,1,5-5A5.006,5.006,0,0,1,34,29Zm0-8a3,3,0,1,0,3,3A3,3,0,0,0,34,21Z"/><path d="M35,38H33a3,3,0,0,1-3-3V33.657l-.95.949a3,3,0,0,1-4.242,0l-1.414-1.414a3,3,0,0,1,0-4.243L24.343,28H23a3,3,0,0,1-3-3V23a3,3,0,0,1,3-3h1.343l-.949-.95a3,3,0,0,1,0-4.242l1.414-1.414a3,3,0,0,1,4.242,0l.95.949V13a3,3,0,0,1,3-3h2a3,3,0,0,1,3,3v1.343l.95-.949a3,3,0,0,1,4.242,0l1.414,1.414a3,3,0,0,1,0,4.243L43.657,20H45a3,3,0,0,1,3,3v2a3,3,0,0,1-3,3H43.657l.949.95a3,3,0,0,1,0,4.242l-1.414,1.414a3,3,0,0,1-4.242,0L38,33.657V35A3,3,0,0,1,35,38Zm-4.872-6.885a.992.992,0,0,1,.43.1,7.989,7.989,0,0,0,.775.321,1,1,0,0,1,.667.944V35a1,1,0,0,0,1,1h2a1,1,0,0,0,1-1V32.477a1,1,0,0,1,.667-.944,7.989,7.989,0,0,0,.775-.321,1,1,0,0,1,1.137.2l1.785,1.784a1,1,0,0,0,1.414,0l1.414-1.414a1,1,0,0,0,0-1.413l-1.785-1.786a1,1,0,0,1-.2-1.14,8.218,8.218,0,0,0,.322-.773A1,1,0,0,1,42.477,26H45a1,1,0,0,0,1-1V23a1,1,0,0,0-1-1H42.477a1,1,0,0,1-.942-.666,8.218,8.218,0,0,0-.322-.773,1,1,0,0,1,.2-1.14l1.784-1.785a1,1,0,0,0,0-1.414l-1.414-1.414a1,1,0,0,0-1.414,0l-1.785,1.784a1,1,0,0,1-1.137.2,7.989,7.989,0,0,0-.775-.321A1,1,0,0,1,36,15.523V13a1,1,0,0,0-1-1H33a1,1,0,0,0-1,1v2.523a1,1,0,0,1-.667.944,7.989,7.989,0,0,0-.775.321,1,1,0,0,1-1.137-.2l-1.785-1.784a1,1,0,0,0-1.414,0l-1.414,1.414a1,1,0,0,0,0,1.413l1.785,1.786a1,1,0,0,1,.2,1.14,8.218,8.218,0,0,0-.322.773,1,1,0,0,1-.942.666H23a1,1,0,0,0-1,1v2a1,1,0,0,0,1,1h2.523a1,1,0,0,1,.942.666,8.218,8.218,0,0,0,.322.773,1,1,0,0,1-.2,1.14l-1.784,1.785a1,1,0,0,0,0,1.414l1.414,1.414a1,1,0,0,0,1.414,0l1.785-1.784A1,1,0,0,1,30.128,31.115Z"/></g></svg>