<svg xmlns="http://www.w3.org/2000/svg" version="1.1" xmlns:xlink="http://www.w3.org/1999/xlink" xmlns:svgjs="http://svgjs.com/svgjs" width="1000" height="1000"><rect width="1000" height="1000" rx="200" ry="200" fill="#262626"></rect><g transform="matrix(8,0,0,8,100,100)"><svg xmlns="http://www.w3.org/2000/svg" version="1.1" xmlns:xlink="http://www.w3.org/1999/xlink" xmlns:svgjs="http://svgjs.com/svgjs" width="100" height="100"><svg version="1.0" id="Layer_1" xmlns="http://www.w3.org/2000/svg" xmlns:xlink="http://www.w3.org/1999/xlink" x="0px" y="0px" viewBox="0 0 100 100" enable-background="new 0 0 100 100" xml:space="preserve">
<path fill="#fff" d="M63.333,83.333V90c-25.774,0-46.666-20.896-46.666-46.669h6.666C23.333,65.423,41.24,83.333,63.333,83.333z"></path>
<path fill="#fff" d="M63.333,70v6.667C44.922,76.667,30,61.741,30,43.331C30,24.922,44.922,10,63.333,10v6.667
	c-14.729,0-26.666,11.94-26.666,26.664C36.667,58.061,48.604,70,63.333,70z"></path>
<path fill="#fff" d="M63.333,56.667v6.666c-11.048,0-20-8.955-20-20.002c0-11.045,8.952-19.998,20-19.998
	c11.049,0,20,8.952,20,19.998l-6.666,0.002C76.667,35.97,70.7,30,63.333,30C55.967,30,50,35.97,50,43.333
	C50,50.695,55.967,56.667,63.333,56.667z"></path>
</svg></svg></g></svg>