<svg xmlns="http://www.w3.org/2000/svg" viewBox="0 0 48 48" fill="#d9d9d9"><title>13-brainstorm</title><g id="_13-brainstorm" data-name="13-brainstorm"><path d="M27,42H21a1,1,0,0,1-1-1V37.9a1,1,0,0,0-.6-.906,11,11,0,1,1,9.2,0,1,1,0,0,0-.6.908V41A1,1,0,0,1,27,42Zm-5-2h4V37.9a3.015,3.015,0,0,1,1.762-2.724A9,9,0,0,0,30,20.292a8.922,8.922,0,0,0-7.035-2.234,9,9,0,0,0-2.724,17.121A3.014,3.014,0,0,1,22,37.9Z"/><path d="M25,48H23a3,3,0,0,1-3-3V41a1,1,0,0,1,1-1h6a1,1,0,0,1,1,1v4A3,3,0,0,1,25,48Zm-3-6v3a1,1,0,0,0,1,1h2a1,1,0,0,0,1-1V42Z"/><rect x="21" y="43" width="6" height="2"/><path d="M10,18C4.486,18,0,13.962,0,9S4.486,0,10,0,20,4.038,20,9,15.514,18,10,18ZM10,2C5.589,2,2,5.14,2,9s3.589,7,8,7,8-3.14,8-7S14.411,2,10,2Z"/><path d="M45,25H37V23h8a1,1,0,0,0,1-1V3a1,1,0,0,0-1-1H27a1,1,0,0,0-1,1V14H24V3a3,3,0,0,1,3-3H45a3,3,0,0,1,3,3V22A3,3,0,0,1,45,25Z"/><path d="M37,45H34V43h3a5.006,5.006,0,0,0,5-5V27h2V38A7.008,7.008,0,0,1,37,45Z"/><path d="M13,38H7a3,3,0,0,1-3-3V19H6V35a1,1,0,0,0,1,1h6Z"/><path d="M9.707,41.707,8.293,40.293,11.586,37,8.293,33.707l1.414-1.414,4,4a1,1,0,0,1,0,1.414Z"/><path d="M46.293,31.707,43,28.414l-3.293,3.293-1.414-1.414,4-4a1,1,0,0,1,1.414,0l4,4Z"/><path d="M25,41H23V28a1,1,0,0,1,1-1h3a1,1,0,0,0,1-1V25h2v1a3,3,0,0,1-3,3H25Z"/><path d="M24,29H21a3,3,0,0,1-3-3V25h2v1a1,1,0,0,0,1,1h3Z"/><path d="M33,15a1,1,0,0,1-.707-.293L29.586,12H28V10h2a1,1,0,0,1,.707.293L33,12.586l4.293-4.293a1,1,0,0,1,1.414,0L40.414,10H44v2H40a1,1,0,0,1-.707-.293L38,10.414l-4.293,4.293A1,1,0,0,1,33,15Z"/><rect x="30" y="43" width="2" height="2"/><rect x="9" y="8" width="2" height="2"/><rect x="13" y="8" width="2" height="2"/><rect x="5" y="8" width="2" height="2"/></g></svg>